<svg width="165" height="48" viewBox="0 0 165 48" fill="none" xmlns="http://www.w3.org/2000/svg">
<g clip-path="url(#clip0)">
<path d="M24 0C10.7448 0 0 10.7448 0 24C0 37.2552 10.7448 48 24 48C37.2552 48 48 37.2552 48 24C48 10.7448 37.2552 0 24 0ZM34.1832 34.1832C25.7472 42.6168 14.3496 44.8968 8.7264 39.2736C3.1032 33.6504 5.3832 22.2528 13.8168 13.8168C22.2528 5.3832 33.6504 3.1032 39.2736 8.7264C44.8968 14.3496 42.6168 25.7472 34.1832 34.1832Z" fill="#E6E6E6"/>
<path d="M24 31.2C27.9765 31.2 31.2001 27.9764 31.2001 24C31.2001 20.0235 27.9765 16.8 24 16.8C20.0236 16.8 16.8 20.0235 16.8 24C16.8 27.9764 20.0236 31.2 24 31.2Z" fill="#E6E6E6"/>
<path d="M68.712 4.4808C70.2432 4.4808 71.6664 4.6128 72.984 4.8744C74.2992 5.136 75.5064 5.472 76.6056 5.88V9.7008C76.1736 9.4584 75.6864 9.2232 75.144 8.9952C74.6016 8.7672 74.0112 8.568 73.3752 8.3928C72.7392 8.2176 72.0552 8.0784 71.328 7.9728C70.6008 7.8672 69.8328 7.8144 69.0312 7.8144C68.0304 7.8144 67.1592 7.8864 66.4152 8.0304C65.6712 8.1744 65.0352 8.3688 64.5048 8.6112C63.9744 8.8536 63.5376 9.1368 63.1968 9.4584C62.856 9.78 62.5872 10.1232 62.3904 10.488C62.1936 10.8528 62.0568 11.2224 61.98 11.6016C61.9032 11.9808 61.8672 12.348 61.8672 12.7056C61.8672 13.0176 61.8984 13.3536 61.9632 13.7184C62.028 14.0832 62.148 14.4456 62.328 14.8104C62.5056 15.1752 62.7552 15.5232 63.072 15.8568C63.3912 16.1904 63.8064 16.4856 64.3176 16.7448C64.8288 17.0016 65.4456 17.2104 66.1656 17.364C66.8856 17.52 67.7424 17.5968 68.736 17.5968C69.2376 17.5968 69.672 17.5824 70.044 17.5512C70.416 17.52 70.7544 17.4792 71.0616 17.4264C71.3688 17.3736 71.6568 17.3088 71.9256 17.232C72.1944 17.1576 72.4728 17.076 72.7608 16.9944V15.1056H68.028V11.6808H76.98V19.6656C76.4184 19.8552 75.792 20.028 75.0984 20.184C74.4048 20.34 73.6872 20.472 72.948 20.5824C72.2088 20.6928 71.4672 20.7768 70.7232 20.8392C69.9792 20.8992 69.2784 20.9304 68.6184 20.9304C67.5936 20.9304 66.612 20.8632 65.6736 20.7264C64.7328 20.5896 63.8544 20.3784 63.0408 20.0952C62.2248 19.812 61.4832 19.4496 60.8112 19.008C60.1392 18.5688 59.568 18.0456 59.0928 17.4384C58.6176 16.8312 58.2504 16.1352 57.9888 15.3504C57.7272 14.5656 57.5952 13.6848 57.5952 12.7056C57.5952 11.736 57.732 10.8552 58.0056 10.0656C58.2792 9.276 58.6584 8.58 59.148 7.9728C59.6376 7.3656 60.2256 6.8424 60.912 6.4032C61.5984 5.964 62.352 5.6016 63.1752 5.316C63.9984 5.0304 64.8768 4.8216 65.8152 4.6848C66.7536 4.548 67.7184 4.4808 68.712 4.4808Z" fill="#E6E6E6"/>
<path d="M92.6472 17.5488H83.9352L82.4688 20.5056H77.76L85.9392 4.8768H90.648L98.8272 20.5056H94.1184L92.6472 17.5488ZM85.4472 14.5008H91.1568L88.3128 8.7456L85.4472 14.5008Z" fill="#E6E6E6"/>
<path d="M119.774 20.508V9.53041L113.974 20.508H109.925L104.124 9.53041V20.508H99.9048V4.87921H105.638L111.95 16.7088L118.262 4.87921H123.972V20.508H119.774V20.508Z" fill="#E6E6E6"/>
<path d="M127.104 20.508V4.87921H142.927V8.21281H131.438V10.7952H142.334V14.1288H131.438V17.1768H143.086V20.5104H127.104V20.508Z" fill="#E6E6E6"/>
<path d="M149.885 20.508H145.666V4.87921H156.245C157.382 4.87921 158.347 4.99681 159.139 5.23201C159.931 5.46721 160.577 5.80081 161.074 6.23281C161.57 6.66481 161.93 7.18561 162.154 7.79761C162.377 8.40721 162.49 9.08881 162.49 9.84001C162.49 10.5 162.396 11.076 162.211 11.568C162.024 12.06 161.774 12.4848 161.46 12.8352C161.146 13.188 160.778 13.4856 160.363 13.728C159.946 13.9704 159.506 14.172 159.043 14.3304L164.16 20.508H159.223L154.49 14.7528H149.882V20.508H149.885ZM158.222 9.81601C158.222 9.51361 158.182 9.25441 158.102 9.04321C158.023 8.83201 157.884 8.65921 157.687 8.52481C157.49 8.39281 157.226 8.29441 156.898 8.23441C156.569 8.17441 156.156 8.14321 155.664 8.14321H149.885V11.4864H155.664C156.156 11.4864 156.569 11.4552 156.898 11.3952C157.229 11.3352 157.49 11.2368 157.687 11.1048C157.884 10.9728 158.023 10.8 158.102 10.5864C158.184 10.3776 158.222 10.1184 158.222 9.81601Z" fill="#E6E6E6"/>
<path d="M78.8713 34.9752C78.8713 36.3168 78.6241 37.5024 78.1321 38.5296C77.6401 39.5568 76.9345 40.416 76.0153 41.1048C75.0985 41.796 73.9849 42.3168 72.6769 42.6696C71.3689 43.0224 69.9001 43.1976 68.2681 43.1976C66.6385 43.1976 65.1649 43.0224 63.8497 42.6696C62.5345 42.3168 61.4137 41.796 60.4873 41.1048C59.5609 40.416 58.8505 39.5568 58.3489 38.5296C57.8473 37.5024 57.5977 36.3168 57.5977 34.9752C57.5977 33.6336 57.8473 32.448 58.3489 31.4208C58.8505 30.3936 59.5609 29.5344 60.4873 28.8456C61.4113 28.1568 62.5321 27.6336 63.8497 27.2808C65.1649 26.928 66.6385 26.7528 68.2681 26.7528C69.8977 26.7528 71.3665 26.9304 72.6769 27.2808C73.9849 27.6336 75.0985 28.1544 76.0153 28.8456C76.9321 29.5368 77.6377 30.3936 78.1321 31.4208C78.6241 32.4504 78.8713 33.6336 78.8713 34.9752ZM74.6041 34.9752C74.6041 34.392 74.5105 33.8088 74.3257 33.228C74.1409 32.6472 73.8097 32.1264 73.3369 31.6632C72.8641 31.2 72.2161 30.8256 71.3977 30.5376C70.5793 30.2496 69.5353 30.1056 68.2705 30.1056C67.4209 30.1056 66.6745 30.1728 66.0289 30.3048C65.3833 30.4368 64.8265 30.6216 64.3561 30.8568C63.8857 31.092 63.4921 31.3656 63.1729 31.6824C62.8537 31.9968 62.5993 32.3352 62.4121 32.6952C62.2225 33.0552 62.0881 33.432 62.0089 33.8208C61.9297 34.212 61.8889 34.596 61.8889 34.9752C61.8889 35.3616 61.9297 35.7528 62.0089 36.1464C62.0881 36.54 62.2225 36.9192 62.4121 37.2792C62.6017 37.6392 62.8561 37.9752 63.1729 38.2848C63.4921 38.5968 63.8857 38.868 64.3561 39.0984C64.8265 39.3288 65.3833 39.5112 66.0289 39.6432C66.6745 39.7752 67.4209 39.8424 68.2705 39.8424C69.5377 39.8424 70.5793 39.6984 71.3977 39.4104C72.2161 39.1224 72.8641 38.748 73.3369 38.2848C73.8097 37.8216 74.1409 37.3008 74.3257 36.72C74.5129 36.1416 74.6041 35.5608 74.6041 34.9752Z" fill="#E6E6E6"/>
<path d="M92.8728 39.8208H84.1608L82.6944 42.7776H77.9856L86.1648 27.1488H90.8736L99.0528 42.7776H94.344L92.8728 39.8208ZM85.6728 36.7728H91.3824L88.5384 31.0176L85.6728 36.7728Z" fill="#E6E6E6"/>
<path d="M114.782 31.5528C114.487 31.4088 114.096 31.2456 113.611 31.0632C113.126 30.8808 112.577 30.708 111.962 30.5448C111.348 30.3816 110.681 30.2448 109.961 30.1344C109.241 30.024 108.502 29.9688 107.743 29.9688C107.136 29.9688 106.62 29.988 106.19 30.0264C105.763 30.0648 105.401 30.1128 105.11 30.1752C104.818 30.2352 104.587 30.3048 104.417 30.3864C104.246 30.4656 104.114 30.5472 104.023 30.6312C103.932 30.7152 103.874 30.7992 103.848 30.8808C103.822 30.9648 103.807 31.0392 103.807 31.1088C103.807 31.3368 103.92 31.536 104.148 31.7064C104.376 31.8768 104.686 32.028 105.082 32.1624C105.475 32.2944 105.934 32.4192 106.457 32.5368C106.98 32.6544 107.534 32.7768 108.122 32.9016C108.71 33.0264 109.318 33.1632 109.942 33.312C110.568 33.4608 111.173 33.6336 111.761 33.8304C112.349 34.0272 112.903 34.2576 113.426 34.5192C113.95 34.7808 114.408 35.0856 114.804 35.436C115.198 35.784 115.51 36.1872 115.738 36.6408C115.966 37.0968 116.078 37.6152 116.078 38.1984C116.078 38.9496 115.946 39.5928 115.68 40.1328C115.414 40.6704 115.061 41.1264 114.617 41.4984C114.173 41.8704 113.659 42.168 113.076 42.3912C112.493 42.6144 111.881 42.7872 111.24 42.9096C110.599 43.032 109.951 43.1112 109.296 43.1472C108.641 43.1856 108.017 43.2048 107.424 43.2048C105.876 43.2048 104.446 43.0776 103.13 42.8232C101.815 42.5688 100.654 42.252 99.6433 41.8728V38.1408C100.682 38.7168 101.868 39.168 103.198 39.4944C104.53 39.8208 105.953 39.984 107.47 39.984C108.365 39.984 109.094 39.936 109.658 39.8424C110.222 39.7488 110.664 39.6264 110.983 39.4776C111.302 39.3288 111.518 39.168 111.631 38.9952C111.744 38.82 111.802 38.6544 111.802 38.4936C111.802 38.244 111.689 38.0256 111.461 37.8408C111.233 37.656 110.923 37.4928 110.527 37.3512C110.134 37.212 109.675 37.0824 109.152 36.9648C108.629 36.8472 108.072 36.7296 107.486 36.612C106.898 36.4944 106.294 36.3672 105.672 36.2304C105.05 36.0936 104.446 35.9328 103.858 35.748C103.27 35.5632 102.715 35.3472 102.192 35.1C101.669 34.8528 101.21 34.5624 100.817 34.224C100.423 33.8856 100.111 33.4968 99.8833 33.0528C99.6553 32.6088 99.5425 32.0952 99.5425 31.512C99.5425 30.8232 99.6649 30.2256 99.9073 29.7264C100.15 29.2248 100.478 28.8 100.891 28.4472C101.304 28.0944 101.782 27.8088 102.324 27.588C102.866 27.3672 103.438 27.1968 104.035 27.0768C104.635 26.9544 105.24 26.8728 105.854 26.8272C106.469 26.7816 107.052 26.76 107.606 26.76C108.214 26.76 108.838 26.7912 109.478 26.8512C110.119 26.9112 110.75 26.9976 111.372 27.108C111.994 27.2184 112.596 27.3456 113.174 27.4896C113.755 27.6336 114.29 27.7848 114.785 27.9456V31.5528H114.782Z" fill="#E6E6E6"/>
<path d="M118.323 42.78V27.1512H122.542V42.78H118.323Z" fill="#E6E6E6"/>
<path d="M140.275 31.5528C139.98 31.4088 139.589 31.2456 139.104 31.0632C138.619 30.8808 138.07 30.708 137.455 30.5448C136.841 30.3816 136.174 30.2448 135.454 30.1344C134.734 30.024 133.994 29.9688 133.236 29.9688C132.629 29.9688 132.113 29.988 131.683 30.0264C131.256 30.0648 130.894 30.1128 130.603 30.1752C130.31 30.2352 130.08 30.3048 129.91 30.3864C129.739 30.4656 129.607 30.5472 129.516 30.6312C129.425 30.7152 129.367 30.7992 129.341 30.8808C129.314 30.9648 129.3 31.0392 129.3 31.1088C129.3 31.3368 129.413 31.536 129.641 31.7064C129.869 31.8768 130.178 32.028 130.574 32.1624C130.968 32.2944 131.426 32.4192 131.95 32.5368C132.473 32.6544 133.027 32.7768 133.615 32.9016C134.203 33.0264 134.81 33.1632 135.434 33.312C136.061 33.4608 136.666 33.6336 137.254 33.8304C137.842 34.0272 138.396 34.2576 138.919 34.5192C139.442 34.7808 139.901 35.0856 140.297 35.436C140.69 35.784 141.002 36.1872 141.23 36.6408C141.458 37.0968 141.571 37.6152 141.571 38.1984C141.571 38.9496 141.439 39.5928 141.173 40.1328C140.906 40.6704 140.554 41.1264 140.11 41.4984C139.666 41.8704 139.152 42.168 138.569 42.3912C137.986 42.6144 137.374 42.7872 136.733 42.9096C136.092 43.032 135.444 43.1112 134.789 43.1472C134.134 43.1856 133.51 43.2048 132.917 43.2048C131.369 43.2048 129.938 43.0776 128.623 42.8232C127.308 42.5688 126.146 42.252 125.136 41.8728V38.1408C126.175 38.7168 127.358 39.168 128.69 39.4944C130.022 39.8208 131.446 39.984 132.962 39.984C133.858 39.984 134.587 39.936 135.151 39.8424C135.715 39.7488 136.157 39.6264 136.476 39.4776C136.795 39.3288 137.011 39.168 137.124 38.9952C137.237 38.82 137.294 38.6544 137.294 38.4936C137.294 38.244 137.182 38.0256 136.954 37.8408C136.726 37.656 136.416 37.4928 136.02 37.3512C135.626 37.212 135.168 37.0824 134.645 36.9648C134.122 36.8472 133.565 36.7296 132.979 36.612C132.391 36.4944 131.786 36.3672 131.165 36.2304C130.543 36.0936 129.938 35.9328 129.35 35.748C128.762 35.5632 128.208 35.3472 127.685 35.1C127.162 34.8528 126.703 34.5624 126.31 34.224C125.916 33.8856 125.604 33.4968 125.376 33.0528C125.148 32.6088 125.035 32.0952 125.035 31.512C125.035 30.8232 125.158 30.2256 125.4 29.7264C125.642 29.2248 125.971 28.8 126.384 28.4472C126.797 28.0944 127.274 27.8088 127.817 27.588C128.359 27.3672 128.93 27.1968 129.528 27.0768C130.126 26.9544 130.733 26.8728 131.347 26.8272C131.962 26.7816 132.545 26.76 133.099 26.76C133.706 26.76 134.33 26.7912 134.971 26.8512C135.612 26.9112 136.243 26.9976 136.865 27.108C137.486 27.2184 138.089 27.3456 138.667 27.4896C139.248 27.6336 139.783 27.7848 140.278 27.9456V31.5528H140.275Z" fill="#E6E6E6"/>
</g>
<defs>
<clipPath id="clip0">
<rect width="164.16" height="48" fill="white"/>
</clipPath>
</defs>
</svg>
